<svg version="1.1" xmlns="http://www.w3.org/2000/svg" viewBox="0 0 266 266" width="798" height="798">
  <!-- svg-source:excalidraw -->
  
  <defs>
    <style>
      @font-face {
        font-family: "Virgil";
        src: url("https://excalidraw.com/Virgil.woff2");
      }
      @font-face {
        font-family: "Cascadia";
        src: url("https://excalidraw.com/Cascadia.woff2");
      }
    </style>
  </defs>
  <g transform="translate(111 54) rotate(0 23 71)" stroke="none" fill="#000000"><path d="M -6.092530708092488 -2.536282751323168 Q -6.092530708092488 -2.536282751323168 -3.989709402095378 -2.536233060647819 -1.8868880960982681 -2.53618336997247 -3.989709402095378 -2.536233060647819 -6.092530708092488 -2.536282751323168 -3.989709402095378 -2.536233060647819 -1.8868880960982681 -2.53618336997247 0.008556211614881959 -2.4986401544472128 1.904000519328032 -2.4610969389219557 4.363415227460032 -2.386339790015165 6.822829935592032 -2.3115826411083735 10.83543732113019 -2.1493546532986025 14.848044706668347 -1.9871266654888315 16.950235535758935 -2.235051996393985 19.052426364849524 -2.4829773272991384 20.705631483451644 -3.125196930516961 22.358836602053763 -3.7674165337347842 24.39069174674094 -4.242838107145835 26.422546891428116 -4.718259680556886 28.25495771970212 -4.759735039436077 30.087368547976123 -4.801210398315268 32.1028507768839 -4.817621600816283 34.11833300579167 -4.834032803317298 36.10050835686252 -4.965004097604497 38.08268370793337 -5.095975391891698 39.60007403872012 -5.469314967157878 41.11746436950687 -5.842654542424059 42.712480298982975 -5.893394068682044 44.30749622845908 -5.94413359494003 45.994500420889054 -5.950139487485045 47.681504613319035 -5.956145380030061 49.44998214918753 -5.592068360752035 51.21845968505602 -5.2279913414740085 52.72442207262051 -3.738559242633887 54.230384460185 -2.249127143793766 54.07675348960322 -0.496808966537016 53.92312251902143 1.2555092107197339 53.49816169869901 3.4677364436693074 53.07320087837659 5.679963676618881 53.23756972167996 7.328350892212523 53.40193856498334 8.976738107806165 53.3996744590754 10.5181962209961 53.39741035316746 12.059654334186035 53.3924264879838 13.58310541546999 53.38744262280014 15.106556496753948 53.38701623085839 16.700734037336034 53.38658983891665 18.29491157791812 53.386570834286786 19.9809229044998 53.38655182965692 21.666934231081477 53.382852896720436 23.538486993376935 53.37915396378395 25.410039755672397 53.372390802994 27.148964291577528 53.365627642204046 28.88788882748266 53.36229230942568 30.978652090962406 53.35895697664731 33.06941535444215 53.36071467533609 35.04493357865189 53.36247237402487 37.02045180286163 53.368641752826065 38.62780849699491 53.37481113162726 40.23516519112819 53.37783191993388 41.79964875205065 53.38085270824051 43.36413231297311 53.384667402793625 44.93545166876488 53.388482097346746 46.50677102455664 53.39133412878437 48.07005771532337 53.394186160222 49.633344406090096 53.22024099972917 51.307172857967146 53.04629583923634 52.98100130984419 50.88615249245318 55.058935728186505 48.72600914567001 57.13687014652882 47.9811743216308 56.59900250938698 47.23633949759159 56.06113487224513 46.94990613173896 55.18818788810896 46.66347276588634 54.3152409039728 46.944848668463976 53.44065065040562 47.22622457104162 52.566060396838445 47.609818078138574 52.41369071835091 47.993411585235535 52.26132103986336 49.636585852047034 52.173958611377 51.27976011885853 52.08659618289064 52.40199855197069 52.962838566882795 53.52423698508286 53.83908095087496 52.88915679371422 53.46216780680313 52.25407660234558 53.0852546627313 53.671622440937725 54.41768673598595 55.08916827952988 55.75011880924061 55.837671991175625 57.34515601455472 56.586175702821365 58.94019321986883 57.82928879540623 60.79473744759318 59.07240188799109 62.649281675317525 59.74046371918785 64.13593923883354 60.40852555038461 65.62259680234958 61.31821742508906 67.22460634199126 62.22790929979351 68.82661588163293 63.33002186969978 70.58321421444879 64.43213443960605 72.33981254726464 65.64878032976587 74.28169847479381 66.8654262199257 76.22358440232298 68.36176508017799 78.16148936728636 69.85810394043028 80.09939433224974 70.99381934069764 81.4443011249879 72.129534740965 82.78920791772605 73.14704124598549 84.00543200853487 74.164547751006 85.22165609934369 75.0236068427032 86.1465931755358 75.88266593440039 87.07153025172789 75.62476800440814 87.3693072017718 75.36687007441587 87.66708415181571 76.67250780637143 88.9170547151734 77.97814553832698 90.1670252785311 78.96360723705169 91.95600553626427 79.94906893577638 93.74498579399744 80.81535408149266 95.16848420825096 81.68163922720893 96.59198262250447 82.89740490132095 97.77114324181285 84.11317057543297 98.95030386112123 84.48191241280557 100.11714896860312 84.85065425017817 101.28399407608501 84.32176705518071 100.71777071090743 83.79287986018328 100.15154734572985 84.59299456780337 100.81063978048094 85.39310927542348 101.46973221523203 85.04390643582369 101.41594601028518 84.69470359622387 101.36215980533834 86.31848760294227 102.62818032500786 87.94227160966065 103.89420084467739 89.51007537298932 104.79981555547324 91.07787913631797 105.7054302662691 91.98158633032494 107.00627280342029 92.88529352433193 108.30711534057147 93.90171599643485 109.72871294426534 94.91813846853776 111.1503105479592 95.75119786335185 112.76803755554471 96.58425725816592 114.38576456313024 97.16746058196821 115.7989981969644 97.75066390577051 117.21223183079857 98.03003166396975 118.92719059597836 98.309399422169 120.64214936115815 98.62521376327697 122.576709566641 98.94102810438496 124.51126977212385 98.8428700728117 126.36036268639467 98.74471204123846 128.20945560066548 98.10063292975778 130.5018042415155 97.45655381827711 132.7941528823655 96.21823444008076 134.38344224218588 94.97991506188441 135.97273160200626 93.9097438457379 137.49463671806353 92.8395726295914 139.01654183412083 91.51502503125131 140.3467618037581 90.19047743291122 141.67698177339537 88.87539353649647 142.11162456499306 87.56030964008173 142.5462673565908 86.84191771449065 142.5867257943546 86.12352578889957 142.62718423211842 84.83062420395794 143.77589775520238 83.53772261901632 144.92461127828633 81.71511767045206 145.45561419923308 79.89251272188778 145.98661712017986 77.77727158044371 146.4067300403318 75.66203043899965 146.8268429604838 73.7648614635867 146.8694236554457 71.86769248817374 146.9120043504076 70.1240587718176 146.90756427112424 68.38042505546147 146.90312419184087 66.53193999444719 146.89060620368264 64.68345493343291 146.8780882155244 62.93675655298951 146.87251110530457 61.1900581725461 146.8669339950847 59.2128305645907 146.98528073470393 57.2356029566353 147.10362747432316 55.076703830074955 147.46574384607342 52.91780470351461 147.82786021782368 50.784344330194244 147.85188552836908 48.65088395687388 147.87591083891448 46.042050395344575 147.81954839554322 43.43321683381527 147.76318595217197 41.75783093716451 147.77998291518432 40.08244504051376 147.79677987819667 38.25834679633839 147.8164267036843 36.43424855216301 147.83607352917193 34.7779230950269 147.84309501430536 33.12159763789079 147.8501164994388 31.448015960863138 147.8633731933406 29.774434283835486 147.87662988724242 28.012622539819382 147.88560225841513 26.250810795803282 147.89457462958782 24.560126052056134 147.90266719780215 22.869441308308982 147.91075976601644 21.01996293378365 147.91617078274592 19.170484559258316 147.9215817994754 17.045005367994026 147.91637056080103 14.919526176729738 147.91115932212665 13.3731743071408 147.91432386227976 11.826822437551861 147.91748840243287 10.096668095658899 147.9177647626923 8.366513753765936 147.9180411229517 6.0445476810125776 147.9069862089696 3.722581608259218 147.89593129498752 1.771630249575895 147.8885194296934 -0.1793211091074276 147.88110756439926 -1.704928780093848 147.88951465103423 -3.230536451080268 147.89792173766918 -4.8566059919175935 147.90060914878194 -6.482675532754919 147.90329655989473 -8.272647045604245 147.9136540894905 -10.06261855845357 147.9240116190863 -11.754004622056117 147.93211017411218 -13.445390685658664 147.94020872913808 -15.152282778181334 147.94655539815074 -16.859174870704003 147.9529020671634 -18.51498150350297 147.95658919751304 -20.170788136301937 147.96027632786266 -21.792035389000567 147.95986370447116 -23.4132826416992 147.9594510810797 -25.35504695237078 147.75824366107958 -27.29681126304236 147.5570362410795 -29.424116991243118 146.97001763898288 -31.551422719443877 146.3829990368863 -33.14642001889122 146.37933470015193 -34.74141731833856 146.37567036341756 -36.35597600091832 146.13482392815817 -37.970534683498066 145.89397749289878 -39.715204390889184 145.5598260628916 -41.459874098280295 145.22567463288442 -43.33798893450409 144.06158746119348 -45.216103770727884 142.89750028950255 -46.641922393290386 142.42893281208 -48.067741015852896 141.9603653346575 -48.484533807156296 141.6045171781313 -48.90132659845969 141.24866902160505 -48.93965432687963 140.31493264942557 -48.97798205529956 139.3811962772461 -48.440965391426836 139.56787268751987 -47.90394872755411 139.75454909779364 -49.24061093036492 138.17288167868614 -50.577273133175744 136.59121425957863 -51.03882568597507 134.689624458325 -51.50037823877439 132.7880346570714 -51.92254652783874 130.82347253105104 -52.34471481690309 128.8589104050307 -52.660614073801455 127.29607571204124 -52.97651333069982 125.73324101905177 -52.80134000485493 123.92781179234451 -52.62616667901004 122.12238256563725 -51.890675046335396 119.70248488172648 -51.15518341366075 117.2825871978157 -50.33592349554688 115.21968980252072 -49.516663577433 113.15679240722575 -48.62012377601985 111.33360269001483 -47.723583974606704 109.5104129728039 -46.98840905721106 108.83043642432612 -46.25323413981542 108.15045987584834 -46.67291701969748 108.29372529000622 -47.09259989957954 108.4369907041641 -46.28595511476594 106.68346648626071 -45.47931032995235 104.92994226835732 -44.47281554545367 104.20163249145298 -43.46632076095499 103.47332271454863 -42.69696082799162 102.51703557694373 -41.92760089502824 101.56074843933881 -41.96522703977014 101.86538500252618 -42.00285318451204 102.17002156571355 -41.023834565825766 100.90240562172603 -40.04481594713948 99.63478967773851 -39.54759239934015 99.38789616982561 -39.0503688515408 99.1410026619127 -37.454976503200676 97.21975782472899 -35.85958415486055 95.29851298754528 -34.81298712506097 94.06389847227189 -33.766390095261386 92.82928395699848 -34.318667247947495 93.52493464914983 -34.870944400633604 94.22058534130116 -34.08710410833503 92.87178817551542 -33.30326381603646 91.52299100972968 -32.30225714803154 90.21023230399666 -31.301250480026617 88.89747359826366 -30.14082713799423 87.60947675143089 -28.98040379596184 86.3214799045981 -27.52140863898213 84.69606368941228 -26.062413482002423 83.07064747422646 -24.938749017739134 81.50875346265165 -23.81508455347584 79.94685945107685 -22.638898180732753 78.45660252133747 -21.46271180798966 76.9663455915981 -20.147404657387703 75.53024006678147 -18.83209750678575 74.09413454196485 -17.72008646268317 73.0239305521682 -16.608075418580587 71.95372656237154 -15.533223946011153 70.70051333927054 -14.45837247344172 69.44730011616953 -13.140677521441571 67.99405807643643 -11.822982569441422 66.54081603670332 -10.831090076152151 65.09493953111027 -9.83919758286288 63.64906302551722 -9.125940039167146 62.561487713951905 -8.412682495471412 61.473912402386595 -8.95251648415965 61.99726027641745 -9.492350472847889 62.52060815044831 -8.831412370195055 60.597737956190166 -8.170474267542222 58.67486776193202 -7.548287404044709 56.172504020895715 -6.926100540547195 53.67014027985941 -7.161609833824706 51.76241967769157 -7.397119127102215 49.854699075523726 -7.395626833757366 48.223137052962485 -7.394134540412518 46.591575030401245 -7.489236825463092 44.948127348192074 -7.584339110513666 43.30467966598291 -7.8779464795581235 41.46809774499977 -8.171553848602581 39.63151582401663 -8.307378973940306 37.91428079654477 -8.44320409927803 36.19704576907291 -8.755182547065324 34.66214455656858 -9.06716099485262 33.12724334406424 -9.068748128164588 31.303328002542823 -9.070335261476556 29.479412661021406 -9.061430489413162 27.206524933829325 -9.052525717349768 24.933637206637243 -9.056661437820631 23.222713194388284 -9.060797158291495 21.51178918213932 -9.063815261359837 19.955313309285152 -9.066833364428179 18.398837436430988 -9.06288995535196 16.770409789716204 -9.058946546275742 15.141982143001423 -9.150828636819877 13.279681940950905 -9.242710727364013 11.417381738900389 -9.576664865675083 9.692564699169736 -9.910619003986152 7.967747659439082 -9.914319433567501 6.39868255161473 -9.91801986314885 4.829617443790378 -9.921157849648493 3.2623048365381684 -9.924295836148136 1.6949922292859592 -10.24255299193533 0.8152027758774061 -10.560810147722524 -0.06458667753114689 -9.949016559965266 -1.2652992000730432 -9.337222972208009 -2.4660117226149394 -8.006222887781986 -2.676821426062718 -6.675222803355962 -2.887631129510496 -5.722331950261913 -1.9347402764221062 -4.7694410971678645 -0.9818494233337167 -4.980250800607738 0.3491506610935581 -5.191060504047611 1.6801507455208329 -6.391773026585874 2.2919443332852225 -7.592485549124135 2.9037379210496117 -8.793198071666032 2.291944333292354 -9.993910594207929 1.6801507455350966 -10.204720297655706 0.34915066110907333 -10.415530001103484 -0.9818494233169499 -9.462639148015096 -1.9347402764109982 -8.509748294926709 -2.8876311295050465 -7.178748210499433 -2.6768214260651746 -5.847748126072156 -2.4660117226253027 -5.235954538307767 -1.2652992000870429 -4.624160950543377 -0.06458667754878315 -4.309470129451383 0.8152027758598615 -3.994779308359389 1.694992229268506 -3.997917143952859 3.2623032266962237 -4.001054979546329 4.829614224123941 -4.0041373964735705 6.392130916410201 -4.007219813400811 7.954647608696461 -3.708638100641233 9.564324468310074 -3.4100563878816543 11.174001327923687 -3.291161857219141 13.118156054606523 -3.1722673265566272 15.06231078128936 -3.1683239174711986 16.730574108763825 -3.1643805083857703 18.398837436238292 -3.167398609102195 19.955313284234364 -3.17041670981862 21.511789132230437 -3.174550017212307 23.2227026337887 -3.178683324605994 24.933616135346966 -3.1696256253504833 27.205193261925622 -3.160567926094972 29.47677038850428 -3.274584431609668 31.40805550222595 -3.3886009371243633 33.33934061594762 -2.9910451742606607 35.54879609807493 -2.5934894113969578 37.75825158020225 -2.1562286704242677 39.46545914617939 -1.7189679294515772 41.172666712156534 -1.5971544682523706 42.78376352374633 -1.475341007053164 44.39486033533612 -1.4678653698359208 46.01086191861259 -1.4603897326186774 47.62686350188907 -1.4567940560348516 49.55493848722182 -1.4531983794510257 51.483013472554575 -1.4539645656072244 53.178612705544865 -1.4547307517634231 54.87421193853516 -1.7738188740966385 56.83786921704353 -2.092906996429854 58.80152649555191 -2.927364715250693 60.90163567611963 -3.761822434071532 63.00174485668735 -5.28040969796079 64.48085424053458 -6.798996961850048 65.95996362438181 -6.169422150566295 65.30782940736054 -5.5398473392825425 64.65569519033929 -5.862172188009675 65.71071345377388 -6.184497036736808 66.76573171720845 -7.237614033817711 68.40027158809389 -8.290731030898614 70.0348114589793 -9.218775829510236 71.59235485430787 -10.146820628121857 73.14989824963645 -11.074635139498874 74.41651658692635 -12.002449650875889 75.68313492421623 -13.24026383420809 76.73403549396878 -14.478078017540293 77.78493606372133 -15.709799374726689 79.23338096034763 -16.941520731913087 80.68182585697392 -18.05156825606201 82.12031894845916 -19.16161578021093 83.55881203994441 -20.485749940839746 84.77595225869972 -21.809884101468565 85.99309247745502 -22.772559414133028 87.43277457765748 -23.735234726797493 88.87245667785993 -24.700337714458513 90.1755698904214 -25.665440702119536 91.47868310298287 -27.111845167424043 92.8947837874521 -28.558249632728547 94.31088447192133 -30.30967229597849 95.71344730886432 -32.061094959228434 97.11601014580731 -31.461712764971054 96.55835114459722 -30.862330570713677 96.00069214338714 -31.428949333596687 97.12141538787073 -31.995568096479698 98.24213863235431 -33.31232271428222 99.91521403425472 -34.629077332084734 101.58828943615514 -35.647811427097764 102.42637096331043 -36.66654552211079 103.26445249046574 -37.78324953365754 104.52169140056105 -38.8999535452043 105.77893031065636 -39.83524463112099 106.71355236272206 -40.77053571703769 107.64817441478775 -41.5932362149392 109.20704974264069 -42.41593671284072 110.76592507049365 -43.70350362870739 111.91672965771164 -44.99107054457406 113.06753424492963 -44.263150676589625 112.22243999063224 -43.53523080860519 111.37734573633483 -43.52731572400414 112.09002170637797 -43.51940063940309 112.8026976764211 -44.191403614584985 114.4036183124186 -44.86340658976688 116.0045389484161 -45.44185104396122 117.52099159302904 -46.02029549815556 119.03744423764198 -46.42888145862912 120.76139775634311 -46.83746741910269 122.48535127504427 -47.053569394068084 124.27465769292255 -47.26967136903348 126.06396411080084 -47.00978078784139 127.65226645164495 -46.74989020664931 129.24056879248906 -46.50232212572135 131.51202780046444 -46.25475404479339 133.78348680843982 -45.447167321437234 136.1500946529638 -44.639580598081075 138.51670249748776 -44.11596410426836 138.88074908122266 -43.59234761045563 139.24479566495756 -42.96444004521336 140.18432333074242 -42.33653247997108 141.12385099652727 -43.18723752174789 140.37059475765227 -44.0379425635247 139.61733851877727 -43.105796842308536 139.32718902034563 -42.17365112109236 139.03703952191398 -40.758056801052916 140.3856951320695 -39.34246248101348 141.73435074222496 -40.01138815943124 141.16961026837492 -40.680313837849006 140.60486979452486 -39.748383742402154 140.27052498726732 -38.81645364695531 139.93618018000979 -37.10677777620497 139.93966022187425 -35.39710190545463 139.94314026373868 -33.406160718749376 140.33497215193597 -31.415219532044112 140.7268040401333 -29.308646248084415 141.24977934709054 -27.202072964124714 141.7727546540478 -25.307677802911957 141.90665178648402 -23.4132826416992 142.04054891892025 -21.792035389000567 142.04013629552878 -20.170788136301937 142.03972367213728 -18.51498150350297 142.0434108024869 -16.859174870704003 142.04709793283655 -15.152282778181334 142.0534446018492 -13.445390685658664 142.05979127086187 -11.754004622056117 142.06788982588776 -10.06261855845357 142.07598838091366 -8.272647045604245 142.08634591050944 -6.482675532754919 142.09670344010522 -4.8566059919175935 142.099390851218 -3.230536451080268 142.10207826233076 -1.704928780093848 142.1104853489657 -0.1793211091074276 142.11889243560069 1.771630249575895 142.11148057030655 3.722581608259218 142.10406870501242 6.0445476810125776 142.09301379103033 8.366513753765936 142.08195887704824 10.096668095658899 142.08223523730766 11.826822437551861 142.08251159756708 13.3731743071408 142.08567613772018 14.919526176729738 142.0888406778733 17.045005367994026 142.08362943919892 19.170484559258316 142.07841820052454 21.01996293378358 142.083829217254 22.869441308308843 142.08924023398345 24.560126052049142 142.09733280219706 26.250810795789445 142.1054253704107 28.012622539545674 142.11439774153837 29.7744342833019 142.123370112666 31.448015939310004 142.1366268036864 33.12159759531811 142.14988349470676 34.777922679389306 142.15690493520435 36.434247763460505 142.16392637570195 38.25833475286551 142.18357025131058 40.08242174227052 142.2032141269192 41.75772183381964 142.2199653828233 43.433021925368756 142.2367166387274 45.41478955809967 142.18147690893977 47.396557190830585 142.12623717915216 49.63283907713266 142.12615106584107 51.869120963434725 142.12606495253 54.44726268358713 141.72172835785753 57.02540440373952 141.31739176318507 59.10773110056638 141.1829753159054 61.19005779739325 141.04855886862572 62.93675342124701 141.0429810414424 64.68344904510077 141.0374032142591 66.53183052829168 141.0248737663788 68.38021201148258 141.01234431849852 70.1171525569311 141.00714612013385 71.85409310237962 141.0019479217692 73.41125998001891 141.02715093902083 74.96842685765822 141.0523539562725 76.55028083666856 140.97964199024693 78.13213481567891 140.90693002422137 79.72708915124812 140.4522898507231 81.32204348681734 139.99764967722487 82.6667116256518 139.47100695614805 84.01137976448628 138.94436423507122 85.59192310653364 137.64419417294857 87.17246644858102 136.34402411082596 88.49615968449658 134.84132763553043 89.81985292041212 133.33863116023494 90.88119880949593 132.1027910517347 91.94254469857974 130.86695094323449 92.41926791095099 129.32638369969013 92.89599112332225 127.78581645614577 93.08973745692542 126.0391466744413 93.28348379052859 124.29247689273681 92.98520699156387 122.25514793588593 92.68693019259914 120.21781897903503 91.9510440650192 118.15166015273849 91.21515793743927 116.08550132644193 90.11055984803696 114.49786672500315 89.00596175863464 112.91023212356438 87.99074978199052 111.43645656317534 86.97553780534639 109.96268100278628 85.3358251621549 108.32423773362478 83.69611251896342 106.68579446446329 82.45198844907378 105.1165877375494 81.20786437918416 103.54738101063549 81.3996745599454 103.91228742812535 81.59148474070663 104.27719384561522 80.69460413742577 103.38224001344328 79.79772353414491 102.48728618127134 78.70523375160329 101.23790437964996 77.61274396906167 99.98852257802858 76.51255388891843 98.39800732481245 75.4123638087752 96.80749207159634 74.5068393370812 95.40746105476545 73.6013148653872 94.00743003793455 73.04560185398526 92.52666180764957 72.48988884258333 91.0458935773646 72.81390415185089 91.3969135215394 73.13791946111846 91.74793346571423 71.9183134370073 90.83175489292123 70.69870741289614 89.91557632012822 69.24931698189488 88.29968295261348 67.79992655089362 86.68378958509874 66.57864843755314 85.1773394935962 65.35737032421267 83.67088940209365 64.3565350128608 82.00338915237853 63.355699701508954 80.33588890266343 61.91703550739844 78.46241099847161 60.47837131328792 76.5889330942798 59.32282826746704 74.84945421003864 58.167285221646154 73.10997532579749 57.282872601696454 71.51707267971273 56.39845998174676 69.92417003362797 55.49083170527235 68.28384425343094 54.58320342879794 66.6435184732339 53.56817439807305 64.81654181322527 52.55314536734816 62.989565153216645 51.69351765716384 61.39906198168863 50.83388994697951 59.80855881016061 50.206221889289225 58.17922481272332 49.57855383159894 56.549890815286034 50.131671684960075 57.086046893709394 50.68478953832121 57.62220297213276 49.849464971415046 56.471996700291825 49.01414040450888 55.32179042845088 48.81715247748308 55.880072940067905 48.620164550457275 56.438355451684934 48.67308684806365 56.787612799106874 48.72600914567001 57.136870146528814 47.9811743216308 56.59900250938697 47.23633949759159 56.06113487224513 46.94990613173896 55.18818788810896 46.66347276588634 54.3152409039728 46.944848668463976 53.44065065040562 47.22622457104162 52.566060396838445 47.34376487014969 51.09970240146427 47.46130516925776 49.633344406090096 47.46415720069539 48.07005771532337 47.467009232133016 46.50677102455664 47.47082392668614 44.93545166876488 47.47463862123925 43.36413231297311 47.47765940954588 41.79964875205065 47.4806801978525 40.23516519112819 47.4868495766537 38.62780849699491 47.49301895545489 37.02045180286163 47.49477665414367 35.04493357865189 47.49653435283245 33.06941535444215 47.49319902005408 30.978652090962406 47.489863687275715 28.88788882748266 47.483100526485764 27.148964291577528 47.47633736569581 25.410039755672397 47.472638432759325 23.538486993376935 47.46893949982284 21.666934231081477 47.46892049519298 19.980922904499785 47.46890149056313 18.29491157791809 47.468475098621525 16.700734037334968 47.46804870667992 15.10655649675185 47.463294171622614 13.16962877866696 47.458539636565305 11.23270106058207 47.45645932841429 9.553152187688493 47.454379020263275 7.873603314794916 47.45573974656566 6.321545623171046 47.45710047286805 4.769487931547175 47.77344686986653 2.9067243606053315 48.089793266865016 1.0439607896634877 48.19886945523628 -0.5883065540903791 48.30794564360754 -2.220573897844246 48.39081051296627 -1.4980535856813553 48.47367538232499 -0.7755332735184647 47.21519922219046 -0.4124382008639076 45.956723062055936 -0.049343128209350495 44.18493221401695 -0.08480784062609686 42.413141365977964 -0.12027255304284323 40.79436752372936 0.2796409918261778 39.175593681480755 0.6795545366951988 37.43103101410889 0.805127163794185 35.68646834673702 0.9306997908931712 33.659103732495836 0.915673620471525 31.631739118254654 0.9006474500498789 29.739389234647028 0.5986152940837948 27.847039351039406 0.29658313811771053 25.665275128933487 0.7966224050755104 23.483510906827565 1.2966616720333102 21.57616600893465 1.7645829876677848 19.668821111041733 2.2325043033022594 17.318209581831713 2.236576047775827 14.967598052621694 2.2406477922493946 10.895213994106863 2.4028757800591656 6.822829935592032 2.5651037678689366 4.363415227460032 2.639860916775728 1.904000519328032 2.7146180656825187 0.008556211614881959 2.752161281207776 -1.8868880960982681 2.789704496733033 -3.989709402095378 2.789754187408382 -6.092530708092488 2.789803878083731 -6.947999458092488 2.789803878083731 -7.803468208092488 2.789803878083731 -8.586117001391862 2.5355058699078477 -9.368765794691239 2.2812078617319638 -9.852469350204345 1.6154470330561013 -10.336172905717449 0.9496862043802387 -10.336172905717449 0.12676056338028124 -10.336172905717449 -0.6961650776196762 -9.852469350204345 -1.3619259062955382 -9.368765794691239 -2.0276867349714003 -7.730648251391863 -2.281984743147284 Z"></path></g><g stroke-linecap="round" transform="translate(10 10) rotate(0 123 123)"><path d="M125.18 -0.67 C138.82 -2.49, 155.41 3.28, 168.89 8.47 C182.36 13.66, 195.61 21.06, 206.02 30.49 C216.44 39.92, 225.01 52.48, 231.4 65.08 C237.78 77.67, 242.38 91.84, 244.33 106.08 C246.29 120.33, 246.14 136.43, 243.14 150.56 C240.14 164.68, 234.08 178.98, 226.33 190.84 C218.58 202.69, 208.07 213.43, 196.64 221.71 C185.21 229.98, 171.54 236.44, 157.76 240.49 C143.98 244.54, 128.17 247.03, 113.95 246.01 C99.72 244.98, 85.28 240.44, 72.41 234.33 C59.53 228.22, 46.92 219.39, 36.69 209.34 C26.46 199.29, 17.17 186.83, 11.02 174.03 C4.88 161.23, 0.94 146.7, -0.17 132.56 C-1.28 118.43, 0.24 102.95, 4.35 89.21 C8.46 75.48, 15.9 61.64, 24.5 50.15 C33.11 38.66, 44.3 28.12, 55.98 20.27 C67.66 12.41, 81.21 6.22, 94.61 3.02 C108 -0.19, 128.14 0.76, 136.35 1.02 C144.57 1.28, 144.2 2.49, 143.9 4.59 M103.34 2.69 C116.47 -1.31, 131.83 1.23, 145.72 3.55 C159.61 5.86, 174.55 9.26, 186.67 16.58 C198.8 23.89, 209.79 36.26, 218.48 47.42 C227.16 58.58, 234.22 70.41, 238.78 83.54 C243.34 96.67, 245.96 111.77, 245.83 126.19 C245.69 140.62, 243.19 156.85, 237.96 170.08 C232.73 183.32, 224.52 195.36, 214.45 205.58 C204.37 215.81, 190.63 224.89, 177.5 231.43 C164.37 237.98, 149.67 243.09, 135.66 244.86 C121.64 246.63, 106.97 245.21, 93.41 242.04 C79.85 238.87, 66.13 233.87, 54.28 225.82 C42.44 217.78, 30.51 205.67, 22.35 193.76 C14.18 181.84, 8.83 168.03, 5.3 154.33 C1.78 140.64, 0.28 125.81, 1.22 111.59 C2.15 97.38, 4.93 81.8, 10.92 69.03 C16.91 56.26, 26.72 44.57, 37.14 34.98 C47.56 25.39, 62.57 17.1, 73.44 11.51 C84.31 5.92, 97.68 2.75, 102.36 1.45 C107.04 0.15, 101.4 1.6, 101.52 3.71" stroke="#000000" stroke-width="4" fill="none"></path></g></svg>